# xmcd
#
# Track frame offsets:
#	183
#	20463
#	37688
#	53955
#	78643
#	99423
#	123678
#	139233
#	158473
#	179050
#
# Disc length: 2688
#
# Revision: 1
# Processed by: cddbd v1.5.1PL0 Copyright (c) Steve Scherf et al.
# Submitted via: dBpowerAMP V4.0
# Normalized: r0:TDELIM( - )
#
DISCID=7f0a7e0a
DTITLE=blues - Lo mejor del blues 2
DYEAR=1900
DGENRE=blues
TTITLE0=John Lee Hooker - I´m in the mood
TTITLE1=Albert collins - the dream
TTITLE2=brendan croker - no money at all
TTITLE3=lonnie brooks - mr. somebody
TTITLE4=stevie ray vaughan - the sky is crying
TTITLE5=muddy waters - mannish boy
TTITLE6=artie kaplan - bensonhurst blues
TTITLE7=the paladins - you and i
TTITLE8=alvin lee - real life blues
TTITLE9=big john´s blues fantasy - still got the blues
EXTD=
EXTT0=
EXTT1=
EXTT2=
EXTT3=
EXTT4=
EXTT5=
EXTT6=
EXTT7=
EXTT8=
EXTT9=
PLAYORDER=
